<mxfile host="app.diagrams.net" agent="Mozilla/5.0 (Windows NT 10.0; Win64; x64) AppleWebKit/537.36 (KHTML, like Gecko) Chrome/135.0.0.0 Safari/537.36" version="26.2.14">
  <diagram name="Page-1" id="pJhYkLcqr-7_JF0ISkGB">
    <mxGraphModel dx="2605" dy="1403" grid="0" gridSize="10" guides="1" tooltips="1" connect="1" arrows="1" fold="1" page="1" pageScale="1" pageWidth="827" pageHeight="1169" background="light-dark(#FFFFFF,#FFFFFF)" math="0" shadow="0">
      <root>
        <mxCell id="0" />
        <mxCell id="1" parent="0" />
        <mxCell id="f88JeJVREhCq8KjihNfG-171" style="edgeStyle=orthogonalEdgeStyle;rounded=0;orthogonalLoop=1;jettySize=auto;html=1;exitX=0.5;exitY=1;exitDx=0;exitDy=0;entryX=1;entryY=0.5;entryDx=0;entryDy=0;strokeColor=#736CA8;fontColor=#1A1A1A;strokeWidth=4;endArrow=oval;endFill=1;" edge="1" parent="1">
          <mxGeometry relative="1" as="geometry">
            <mxPoint x="405.00000000000045" y="976" as="sourcePoint" />
            <mxPoint x="2152" y="646" as="targetPoint" />
            <Array as="points">
              <mxPoint x="405" y="1164" />
              <mxPoint x="2172" y="1164" />
              <mxPoint x="2172" y="646" />
            </Array>
          </mxGeometry>
        </mxCell>
        <mxCell id="f88JeJVREhCq8KjihNfG-172" value="&lt;font style=&quot;font-size: 17px;&quot;&gt;&lt;b&gt;have&lt;/b&gt;&lt;/font&gt;" style="rhombus;whiteSpace=wrap;html=1;strokeColor=#D0CEE2;fontColor=#1A1A1A;fillColor=#5D7F99;" vertex="1" parent="1">
          <mxGeometry x="1596" y="1125" width="80" height="80" as="geometry" />
        </mxCell>
        <mxCell id="f88JeJVREhCq8KjihNfG-166" value="" style="endArrow=none;html=1;rounded=0;strokeWidth=4;labelBackgroundColor=none;strokeColor=#736CA8;fontColor=default;exitX=0.5;exitY=1;exitDx=0;exitDy=0;entryX=0.5;entryY=0;entryDx=0;entryDy=0;" edge="1" parent="1" source="f88JeJVREhCq8KjihNfG-74" target="f88JeJVREhCq8KjihNfG-56">
          <mxGeometry width="50" height="50" relative="1" as="geometry">
            <mxPoint x="1426" y="228" as="sourcePoint" />
            <mxPoint x="1716" y="86" as="targetPoint" />
          </mxGeometry>
        </mxCell>
        <mxCell id="f88JeJVREhCq8KjihNfG-158" value="" style="endArrow=none;html=1;rounded=0;strokeWidth=4;labelBackgroundColor=none;strokeColor=#736CA8;fontColor=default;exitX=0.5;exitY=0;exitDx=0;exitDy=0;entryX=0.5;entryY=1;entryDx=0;entryDy=0;" edge="1" parent="1" source="f88JeJVREhCq8KjihNfG-67" target="f88JeJVREhCq8KjihNfG-79">
          <mxGeometry width="50" height="50" relative="1" as="geometry">
            <mxPoint x="1936" y="952" as="sourcePoint" />
            <mxPoint x="2226" y="810" as="targetPoint" />
          </mxGeometry>
        </mxCell>
        <mxCell id="f88JeJVREhCq8KjihNfG-55" value="" style="endArrow=none;html=1;rounded=0;entryX=0.5;entryY=0;entryDx=0;entryDy=0;strokeWidth=4;labelBackgroundColor=none;strokeColor=#736CA8;fontColor=default;exitX=0.5;exitY=1;exitDx=0;exitDy=0;" edge="1" parent="1" source="f88JeJVREhCq8KjihNfG-47" target="f88JeJVREhCq8KjihNfG-39">
          <mxGeometry width="50" height="50" relative="1" as="geometry">
            <mxPoint x="896.5" y="1051" as="sourcePoint" />
            <mxPoint x="1091.5" y="974" as="targetPoint" />
          </mxGeometry>
        </mxCell>
        <mxCell id="f88JeJVREhCq8KjihNfG-52" value="" style="endArrow=none;html=1;rounded=0;entryX=0;entryY=1;entryDx=0;entryDy=0;strokeWidth=4;labelBackgroundColor=none;strokeColor=#736CA8;fontColor=default;exitX=0.5;exitY=0;exitDx=0;exitDy=0;" edge="1" parent="1" source="f88JeJVREhCq8KjihNfG-39" target="f88JeJVREhCq8KjihNfG-46">
          <mxGeometry width="50" height="50" relative="1" as="geometry">
            <mxPoint x="1399.5" y="1074" as="sourcePoint" />
            <mxPoint x="1594.5" y="997" as="targetPoint" />
          </mxGeometry>
        </mxCell>
        <mxCell id="f88JeJVREhCq8KjihNfG-38" value="" style="endArrow=none;html=1;rounded=0;entryX=0;entryY=1;entryDx=0;entryDy=0;strokeWidth=4;labelBackgroundColor=none;strokeColor=#736CA8;fontColor=default;exitX=0.5;exitY=0;exitDx=0;exitDy=0;" edge="1" parent="1" source="f88JeJVREhCq8KjihNfG-20" target="f88JeJVREhCq8KjihNfG-23">
          <mxGeometry width="50" height="50" relative="1" as="geometry">
            <mxPoint x="601" y="986" as="sourcePoint" />
            <mxPoint x="473" y="849" as="targetPoint" />
          </mxGeometry>
        </mxCell>
        <mxCell id="f88JeJVREhCq8KjihNfG-37" value="" style="endArrow=none;html=1;rounded=0;entryX=0.5;entryY=0;entryDx=0;entryDy=0;strokeWidth=4;labelBackgroundColor=none;strokeColor=#736CA8;fontColor=default;exitX=0.5;exitY=1;exitDx=0;exitDy=0;" edge="1" parent="1" source="f88JeJVREhCq8KjihNfG-29" target="f88JeJVREhCq8KjihNfG-20">
          <mxGeometry width="50" height="50" relative="1" as="geometry">
            <mxPoint x="354" y="652" as="sourcePoint" />
            <mxPoint x="226" y="515" as="targetPoint" />
          </mxGeometry>
        </mxCell>
        <mxCell id="f88JeJVREhCq8KjihNfG-36" value="" style="endArrow=none;html=1;rounded=0;entryX=1;entryY=1;entryDx=0;entryDy=0;strokeWidth=4;labelBackgroundColor=none;strokeColor=#736CA8;fontColor=default;exitX=0.5;exitY=0;exitDx=0;exitDy=0;" edge="1" parent="1" source="f88JeJVREhCq8KjihNfG-20" target="f88JeJVREhCq8KjihNfG-27">
          <mxGeometry width="50" height="50" relative="1" as="geometry">
            <mxPoint x="484" y="719" as="sourcePoint" />
            <mxPoint x="356" y="582" as="targetPoint" />
          </mxGeometry>
        </mxCell>
        <mxCell id="f88JeJVREhCq8KjihNfG-17" value="" style="endArrow=none;html=1;rounded=0;entryX=0.5;entryY=1;entryDx=0;entryDy=0;strokeWidth=4;labelBackgroundColor=none;strokeColor=#736CA8;fontColor=default;exitX=0.453;exitY=0.013;exitDx=0;exitDy=0;exitPerimeter=0;" edge="1" parent="1" source="f88JeJVREhCq8KjihNfG-2" target="f88JeJVREhCq8KjihNfG-12">
          <mxGeometry width="50" height="50" relative="1" as="geometry">
            <mxPoint x="250" y="296" as="sourcePoint" />
            <mxPoint x="71" y="236" as="targetPoint" />
          </mxGeometry>
        </mxCell>
        <mxCell id="f88JeJVREhCq8KjihNfG-16" value="" style="endArrow=none;html=1;rounded=0;entryX=0;entryY=1;entryDx=0;entryDy=0;strokeWidth=4;labelBackgroundColor=none;strokeColor=#736CA8;fontColor=default;exitX=0.5;exitY=0;exitDx=0;exitDy=0;" edge="1" parent="1" source="f88JeJVREhCq8KjihNfG-2" target="f88JeJVREhCq8KjihNfG-10">
          <mxGeometry width="50" height="50" relative="1" as="geometry">
            <mxPoint x="413" y="374" as="sourcePoint" />
            <mxPoint x="234" y="314" as="targetPoint" />
          </mxGeometry>
        </mxCell>
        <mxCell id="f88JeJVREhCq8KjihNfG-14" value="" style="endArrow=none;html=1;rounded=0;strokeWidth=4;labelBackgroundColor=none;strokeColor=#736CA8;fontColor=default;entryX=0.5;entryY=1;entryDx=0;entryDy=0;exitX=0.5;exitY=0;exitDx=0;exitDy=0;" edge="1" parent="1" source="f88JeJVREhCq8KjihNfG-2" target="f88JeJVREhCq8KjihNfG-13">
          <mxGeometry width="50" height="50" relative="1" as="geometry">
            <mxPoint x="360" y="448" as="sourcePoint" />
            <mxPoint x="190" y="228" as="targetPoint" />
          </mxGeometry>
        </mxCell>
        <mxCell id="f88JeJVREhCq8KjihNfG-167" style="edgeStyle=orthogonalEdgeStyle;rounded=0;orthogonalLoop=1;jettySize=auto;html=1;exitX=1;exitY=0.5;exitDx=0;exitDy=0;entryX=0;entryY=0.5;entryDx=0;entryDy=0;strokeColor=#736CA8;fontColor=#1A1A1A;jumpSize=19;strokeWidth=5;endArrow=oval;endFill=1;" edge="1" parent="1" source="f88JeJVREhCq8KjihNfG-175" target="f88JeJVREhCq8KjihNfG-39">
          <mxGeometry relative="1" as="geometry">
            <Array as="points">
              <mxPoint x="820" y="606" />
              <mxPoint x="820" y="1075" />
            </Array>
          </mxGeometry>
        </mxCell>
        <mxCell id="f88JeJVREhCq8KjihNfG-169" style="edgeStyle=orthogonalEdgeStyle;rounded=0;orthogonalLoop=1;jettySize=auto;html=1;exitX=0;exitY=0.5;exitDx=0;exitDy=0;entryX=0;entryY=0.75;entryDx=0;entryDy=0;strokeColor=#736CA8;fontColor=#1A1A1A;strokeWidth=4;endArrow=oval;endFill=1;" edge="1" parent="1" source="f88JeJVREhCq8KjihNfG-2" target="f88JeJVREhCq8KjihNfG-68">
          <mxGeometry relative="1" as="geometry">
            <Array as="points">
              <mxPoint x="31" y="477" />
              <mxPoint x="31" y="130" />
              <mxPoint x="1686" y="130" />
              <mxPoint x="1686" y="659" />
            </Array>
          </mxGeometry>
        </mxCell>
        <mxCell id="f88JeJVREhCq8KjihNfG-2" value="&lt;b&gt;&lt;font style=&quot;font-size: 19px;&quot;&gt;Users&lt;/font&gt;&lt;/b&gt;" style="rounded=0;whiteSpace=wrap;html=1;fillColor=#5D7F99;strokeColor=#D0CEE2;labelBackgroundColor=none;fontColor=#1A1A1A;" vertex="1" parent="1">
          <mxGeometry x="280" y="446" width="158" height="62" as="geometry" />
        </mxCell>
        <mxCell id="f88JeJVREhCq8KjihNfG-3" value="first_name" style="ellipse;whiteSpace=wrap;html=1;fillColor=#5D7F99;strokeColor=#D0CEE2;labelBackgroundColor=none;fontColor=#1A1A1A;fontSize=13;fontStyle=1" vertex="1" parent="1">
          <mxGeometry x="272" y="307" width="162" height="60" as="geometry" />
        </mxCell>
        <mxCell id="f88JeJVREhCq8KjihNfG-4" value="last_name" style="ellipse;whiteSpace=wrap;html=1;fillColor=#5D7F99;strokeColor=#D0CEE2;labelBackgroundColor=none;fontColor=#1A1A1A;fontSize=13;fontStyle=1" vertex="1" parent="1">
          <mxGeometry x="448" y="310" width="162" height="60" as="geometry" />
        </mxCell>
        <mxCell id="f88JeJVREhCq8KjihNfG-5" value="User_ID" style="ellipse;whiteSpace=wrap;html=1;fillColor=#5D7F99;strokeColor=#D0CEE2;labelBackgroundColor=none;fontColor=#1A1A1A;fontSize=13;fontStyle=1" vertex="1" parent="1">
          <mxGeometry x="43" y="376" width="162" height="60" as="geometry" />
        </mxCell>
        <mxCell id="f88JeJVREhCq8KjihNfG-7" value="" style="endArrow=none;html=1;rounded=0;strokeWidth=4;labelBackgroundColor=none;strokeColor=#736CA8;fontColor=default;exitX=0.5;exitY=0;exitDx=0;exitDy=0;entryX=0.5;entryY=1;entryDx=0;entryDy=0;" edge="1" parent="1" source="f88JeJVREhCq8KjihNfG-2" target="f88JeJVREhCq8KjihNfG-3">
          <mxGeometry width="50" height="50" relative="1" as="geometry">
            <mxPoint x="361" y="448" as="sourcePoint" />
            <mxPoint x="361" y="310" as="targetPoint" />
          </mxGeometry>
        </mxCell>
        <mxCell id="f88JeJVREhCq8KjihNfG-8" value="" style="endArrow=none;html=1;rounded=0;entryX=0.5;entryY=1;entryDx=0;entryDy=0;strokeWidth=4;labelBackgroundColor=none;strokeColor=#736CA8;fontColor=default;exitX=0.5;exitY=0;exitDx=0;exitDy=0;" edge="1" parent="1" source="f88JeJVREhCq8KjihNfG-2" target="f88JeJVREhCq8KjihNfG-5">
          <mxGeometry width="50" height="50" relative="1" as="geometry">
            <mxPoint x="360" y="446" as="sourcePoint" />
            <mxPoint x="349" y="316" as="targetPoint" />
          </mxGeometry>
        </mxCell>
        <mxCell id="f88JeJVREhCq8KjihNfG-9" value="" style="endArrow=none;html=1;rounded=0;entryX=0.5;entryY=1;entryDx=0;entryDy=0;strokeWidth=4;labelBackgroundColor=none;strokeColor=#736CA8;fontColor=default;exitX=0.5;exitY=0;exitDx=0;exitDy=0;" edge="1" parent="1" source="f88JeJVREhCq8KjihNfG-2" target="f88JeJVREhCq8KjihNfG-4">
          <mxGeometry width="50" height="50" relative="1" as="geometry">
            <mxPoint x="402" y="371" as="sourcePoint" />
            <mxPoint x="391" y="232" as="targetPoint" />
          </mxGeometry>
        </mxCell>
        <mxCell id="f88JeJVREhCq8KjihNfG-10" value="Password_hash" style="ellipse;whiteSpace=wrap;html=1;fillColor=#5D7F99;strokeColor=#D0CEE2;labelBackgroundColor=none;fontColor=#1A1A1A;fontSize=13;fontStyle=1" vertex="1" parent="1">
          <mxGeometry x="423" y="250" width="162" height="60" as="geometry" />
        </mxCell>
        <mxCell id="f88JeJVREhCq8KjihNfG-11" value="Phone_number" style="ellipse;whiteSpace=wrap;html=1;fillColor=#5D7F99;strokeColor=#D0CEE2;labelBackgroundColor=none;fontColor=#1A1A1A;fontSize=13;fontStyle=1" vertex="1" parent="1">
          <mxGeometry x="531" y="370" width="162" height="60" as="geometry" />
        </mxCell>
        <mxCell id="f88JeJVREhCq8KjihNfG-12" value="role" style="ellipse;whiteSpace=wrap;html=1;fillColor=#5D7F99;strokeColor=#D0CEE2;labelBackgroundColor=none;fontColor=#1A1A1A;fontSize=13;fontStyle=1" vertex="1" parent="1">
          <mxGeometry x="143" y="250" width="162" height="60" as="geometry" />
        </mxCell>
        <mxCell id="f88JeJVREhCq8KjihNfG-13" value="Created_at" style="ellipse;whiteSpace=wrap;html=1;fillColor=#5D7F99;strokeColor=#D0CEE2;labelBackgroundColor=none;fontColor=#1A1A1A;fontSize=13;fontStyle=1" vertex="1" parent="1">
          <mxGeometry x="99" y="312" width="162" height="60" as="geometry" />
        </mxCell>
        <mxCell id="f88JeJVREhCq8KjihNfG-15" value="" style="endArrow=none;html=1;rounded=0;strokeWidth=4;labelBackgroundColor=none;strokeColor=#736CA8;fontColor=default;exitX=0.5;exitY=0;exitDx=0;exitDy=0;entryX=0.5;entryY=1;entryDx=0;entryDy=0;" edge="1" parent="1" source="f88JeJVREhCq8KjihNfG-2" target="f88JeJVREhCq8KjihNfG-11">
          <mxGeometry width="50" height="50" relative="1" as="geometry">
            <mxPoint x="467" y="446" as="sourcePoint" />
            <mxPoint x="660" y="359" as="targetPoint" />
          </mxGeometry>
        </mxCell>
        <mxCell id="f88JeJVREhCq8KjihNfG-168" style="edgeStyle=orthogonalEdgeStyle;rounded=0;orthogonalLoop=1;jettySize=auto;html=1;exitX=1;exitY=0.5;exitDx=0;exitDy=0;entryX=0.5;entryY=1;entryDx=0;entryDy=0;strokeColor=#736CA8;fontColor=#1A1A1A;strokeWidth=4;endArrow=oval;endFill=1;" edge="1" parent="1" source="f88JeJVREhCq8KjihNfG-20" target="f88JeJVREhCq8KjihNfG-39">
          <mxGeometry relative="1" as="geometry">
            <Array as="points">
              <mxPoint x="675" y="942" />
              <mxPoint x="675" y="1126" />
              <mxPoint x="1165" y="1126" />
            </Array>
          </mxGeometry>
        </mxCell>
        <mxCell id="f88JeJVREhCq8KjihNfG-20" value="&lt;b&gt;&lt;font style=&quot;font-size: 19px;&quot;&gt;Properties&lt;/font&gt;&lt;/b&gt;" style="rounded=0;whiteSpace=wrap;html=1;fillColor=#5D7F99;strokeColor=#D0CEE2;labelBackgroundColor=none;fontColor=#1A1A1A;" vertex="1" parent="1">
          <mxGeometry x="328" y="911" width="158" height="62" as="geometry" />
        </mxCell>
        <mxCell id="f88JeJVREhCq8KjihNfG-21" value="Properity_id" style="ellipse;whiteSpace=wrap;html=1;fillColor=#5D7F99;strokeColor=#D0CEE2;labelBackgroundColor=none;fontColor=#1A1A1A;fontSize=13;fontStyle=1" vertex="1" parent="1">
          <mxGeometry x="554" y="847" width="162" height="60" as="geometry" />
        </mxCell>
        <mxCell id="f88JeJVREhCq8KjihNfG-23" value="host_id" style="ellipse;whiteSpace=wrap;html=1;fillColor=#5D7F99;strokeColor=#D0CEE2;labelBackgroundColor=none;fontColor=#1A1A1A;fontSize=13;fontStyle=1" vertex="1" parent="1">
          <mxGeometry x="493" y="705" width="162" height="60" as="geometry" />
        </mxCell>
        <mxCell id="f88JeJVREhCq8KjihNfG-24" value="name" style="ellipse;whiteSpace=wrap;html=1;fillColor=#5D7F99;strokeColor=#D0CEE2;labelBackgroundColor=none;fontColor=#1A1A1A;fontSize=13;fontStyle=1" vertex="1" parent="1">
          <mxGeometry x="355" y="779" width="162" height="60" as="geometry" />
        </mxCell>
        <mxCell id="f88JeJVREhCq8KjihNfG-25" value="description" style="ellipse;whiteSpace=wrap;html=1;fillColor=#5D7F99;strokeColor=#D0CEE2;labelBackgroundColor=none;fontColor=#1A1A1A;fontSize=13;fontStyle=1" vertex="1" parent="1">
          <mxGeometry x="183" y="779" width="162" height="60" as="geometry" />
        </mxCell>
        <mxCell id="f88JeJVREhCq8KjihNfG-26" value="location" style="ellipse;whiteSpace=wrap;html=1;fillColor=#5D7F99;strokeColor=#D0CEE2;labelBackgroundColor=none;fontColor=#1A1A1A;fontSize=13;fontStyle=1" vertex="1" parent="1">
          <mxGeometry x="521" y="774" width="162" height="60" as="geometry" />
        </mxCell>
        <mxCell id="f88JeJVREhCq8KjihNfG-27" value="PricePernight" style="ellipse;whiteSpace=wrap;html=1;fillColor=#5D7F99;strokeColor=#D0CEE2;labelBackgroundColor=none;fontColor=#1A1A1A;fontSize=13;fontStyle=1" vertex="1" parent="1">
          <mxGeometry x="118" y="714" width="162" height="60" as="geometry" />
        </mxCell>
        <mxCell id="f88JeJVREhCq8KjihNfG-28" value="Created_at" style="ellipse;whiteSpace=wrap;html=1;fillColor=#5D7F99;strokeColor=#D0CEE2;labelBackgroundColor=none;fontColor=#1A1A1A;fontSize=13;fontStyle=1" vertex="1" parent="1">
          <mxGeometry x="77" y="847" width="162" height="60" as="geometry" />
        </mxCell>
        <mxCell id="f88JeJVREhCq8KjihNfG-29" value="Update_at" style="ellipse;whiteSpace=wrap;html=1;fillColor=#5D7F99;strokeColor=#D0CEE2;labelBackgroundColor=none;fontColor=#1A1A1A;fontSize=13;fontStyle=1" vertex="1" parent="1">
          <mxGeometry x="311" y="698" width="162" height="60" as="geometry" />
        </mxCell>
        <mxCell id="f88JeJVREhCq8KjihNfG-31" value="" style="endArrow=none;html=1;rounded=0;entryX=0.5;entryY=1;entryDx=0;entryDy=0;strokeWidth=4;labelBackgroundColor=none;strokeColor=#736CA8;fontColor=default;exitX=0.5;exitY=0;exitDx=0;exitDy=0;" edge="1" parent="1" source="f88JeJVREhCq8KjihNfG-20" target="f88JeJVREhCq8KjihNfG-25">
          <mxGeometry width="50" height="50" relative="1" as="geometry">
            <mxPoint x="413" y="932" as="sourcePoint" />
            <mxPoint x="295" y="806" as="targetPoint" />
          </mxGeometry>
        </mxCell>
        <mxCell id="f88JeJVREhCq8KjihNfG-32" value="" style="endArrow=none;html=1;rounded=0;entryX=0.5;entryY=1;entryDx=0;entryDy=0;strokeWidth=4;labelBackgroundColor=none;strokeColor=#736CA8;fontColor=default;exitX=0.5;exitY=0;exitDx=0;exitDy=0;" edge="1" parent="1" source="f88JeJVREhCq8KjihNfG-20" target="f88JeJVREhCq8KjihNfG-28">
          <mxGeometry width="50" height="50" relative="1" as="geometry">
            <mxPoint x="386" y="816" as="sourcePoint" />
            <mxPoint x="258" y="679" as="targetPoint" />
          </mxGeometry>
        </mxCell>
        <mxCell id="f88JeJVREhCq8KjihNfG-33" value="" style="endArrow=none;html=1;rounded=0;entryX=0.5;entryY=1;entryDx=0;entryDy=0;strokeWidth=4;labelBackgroundColor=none;strokeColor=#736CA8;fontColor=default;exitX=0.5;exitY=0;exitDx=0;exitDy=0;" edge="1" parent="1" source="f88JeJVREhCq8KjihNfG-20" target="f88JeJVREhCq8KjihNfG-24">
          <mxGeometry width="50" height="50" relative="1" as="geometry">
            <mxPoint x="404" y="826" as="sourcePoint" />
            <mxPoint x="276" y="689" as="targetPoint" />
          </mxGeometry>
        </mxCell>
        <mxCell id="f88JeJVREhCq8KjihNfG-34" value="" style="endArrow=none;html=1;rounded=0;entryX=0.5;entryY=1;entryDx=0;entryDy=0;strokeWidth=4;labelBackgroundColor=none;strokeColor=#736CA8;fontColor=default;exitX=0.5;exitY=0;exitDx=0;exitDy=0;" edge="1" parent="1" source="f88JeJVREhCq8KjihNfG-20" target="f88JeJVREhCq8KjihNfG-21">
          <mxGeometry width="50" height="50" relative="1" as="geometry">
            <mxPoint x="466" y="842" as="sourcePoint" />
            <mxPoint x="338" y="705" as="targetPoint" />
          </mxGeometry>
        </mxCell>
        <mxCell id="f88JeJVREhCq8KjihNfG-35" value="" style="endArrow=none;html=1;rounded=0;entryX=0.5;entryY=1;entryDx=0;entryDy=0;strokeWidth=4;labelBackgroundColor=none;strokeColor=#736CA8;fontColor=default;exitX=0.5;exitY=0;exitDx=0;exitDy=0;" edge="1" parent="1" source="f88JeJVREhCq8KjihNfG-20" target="f88JeJVREhCq8KjihNfG-26">
          <mxGeometry width="50" height="50" relative="1" as="geometry">
            <mxPoint x="472" y="875" as="sourcePoint" />
            <mxPoint x="344" y="738" as="targetPoint" />
          </mxGeometry>
        </mxCell>
        <mxCell id="f88JeJVREhCq8KjihNfG-170" style="edgeStyle=orthogonalEdgeStyle;rounded=0;orthogonalLoop=1;jettySize=auto;html=1;exitX=1;exitY=0.5;exitDx=0;exitDy=0;entryX=1;entryY=0.5;entryDx=0;entryDy=0;strokeColor=#736CA8;fontColor=#1A1A1A;strokeWidth=4;endArrow=oval;endFill=1;" edge="1" parent="1" source="f88JeJVREhCq8KjihNfG-39" target="f88JeJVREhCq8KjihNfG-56">
          <mxGeometry relative="1" as="geometry">
            <Array as="points">
              <mxPoint x="1515" y="1075" />
              <mxPoint x="1515" y="507" />
            </Array>
          </mxGeometry>
        </mxCell>
        <mxCell id="f88JeJVREhCq8KjihNfG-39" value="&lt;b&gt;&lt;font style=&quot;font-size: 19px;&quot;&gt;Booking&lt;/font&gt;&lt;/b&gt;" style="rounded=0;whiteSpace=wrap;html=1;fillColor=#5D7F99;strokeColor=#D0CEE2;labelBackgroundColor=none;fontColor=#1A1A1A;" vertex="1" parent="1">
          <mxGeometry x="1085.5" y="1044" width="158" height="62" as="geometry" />
        </mxCell>
        <mxCell id="f88JeJVREhCq8KjihNfG-40" value="booking_id" style="ellipse;whiteSpace=wrap;html=1;fillColor=#5D7F99;strokeColor=#D0CEE2;labelBackgroundColor=none;fontColor=#1A1A1A;fontSize=13;fontStyle=1" vertex="1" parent="1">
          <mxGeometry x="1290.5" y="927" width="162" height="60" as="geometry" />
        </mxCell>
        <mxCell id="f88JeJVREhCq8KjihNfG-41" value="Property_id" style="ellipse;whiteSpace=wrap;html=1;fillColor=#5D7F99;strokeColor=#D0CEE2;labelBackgroundColor=none;fontColor=#1A1A1A;fontSize=13;fontStyle=1" vertex="1" parent="1">
          <mxGeometry x="1006.5" y="871" width="162" height="60" as="geometry" />
        </mxCell>
        <mxCell id="f88JeJVREhCq8KjihNfG-42" value="user_id" style="ellipse;whiteSpace=wrap;html=1;fillColor=#5D7F99;strokeColor=#D0CEE2;labelBackgroundColor=none;fontColor=#1A1A1A;fontSize=13;fontStyle=1" vertex="1" parent="1">
          <mxGeometry x="1175.5" y="878" width="162" height="60" as="geometry" />
        </mxCell>
        <mxCell id="f88JeJVREhCq8KjihNfG-43" value="start_date" style="ellipse;whiteSpace=wrap;html=1;fillColor=#5D7F99;strokeColor=#D0CEE2;labelBackgroundColor=none;fontColor=#1A1A1A;fontSize=13;fontStyle=1" vertex="1" parent="1">
          <mxGeometry x="900.5" y="941" width="162" height="60" as="geometry" />
        </mxCell>
        <mxCell id="f88JeJVREhCq8KjihNfG-44" value="end_date" style="ellipse;whiteSpace=wrap;html=1;fillColor=#5D7F99;strokeColor=#D0CEE2;labelBackgroundColor=none;fontColor=#1A1A1A;fontSize=13;fontStyle=1" vertex="1" parent="1">
          <mxGeometry x="830.5" y="875" width="162" height="60" as="geometry" />
        </mxCell>
        <mxCell id="f88JeJVREhCq8KjihNfG-45" value="total_price" style="ellipse;whiteSpace=wrap;html=1;fillColor=#5D7F99;strokeColor=#D0CEE2;labelBackgroundColor=none;fontColor=#1A1A1A;fontSize=13;fontStyle=1" vertex="1" parent="1">
          <mxGeometry x="1098.5" y="811" width="162" height="60" as="geometry" />
        </mxCell>
        <mxCell id="f88JeJVREhCq8KjihNfG-46" value="status" style="ellipse;whiteSpace=wrap;html=1;fillColor=#5D7F99;strokeColor=#D0CEE2;labelBackgroundColor=none;fontColor=#1A1A1A;fontSize=13;fontStyle=1" vertex="1" parent="1">
          <mxGeometry x="1337.5" y="838" width="162" height="60" as="geometry" />
        </mxCell>
        <mxCell id="f88JeJVREhCq8KjihNfG-47" value="Created_at" style="ellipse;whiteSpace=wrap;html=1;fillColor=#5D7F99;strokeColor=#D0CEE2;labelBackgroundColor=none;fontColor=#1A1A1A;fontSize=13;fontStyle=1" vertex="1" parent="1">
          <mxGeometry x="917.5" y="807" width="162" height="60" as="geometry" />
        </mxCell>
        <mxCell id="f88JeJVREhCq8KjihNfG-48" value="" style="endArrow=none;html=1;rounded=0;strokeWidth=4;labelBackgroundColor=none;strokeColor=#736CA8;fontColor=default;exitX=0.5;exitY=0;exitDx=0;exitDy=0;entryX=0.5;entryY=1;entryDx=0;entryDy=0;" edge="1" parent="1" source="f88JeJVREhCq8KjihNfG-39" target="f88JeJVREhCq8KjihNfG-40">
          <mxGeometry width="50" height="50" relative="1" as="geometry">
            <mxPoint x="1165.5" y="857" as="sourcePoint" />
            <mxPoint x="1266.5" y="910" as="targetPoint" />
          </mxGeometry>
        </mxCell>
        <mxCell id="f88JeJVREhCq8KjihNfG-49" value="" style="endArrow=none;html=1;rounded=0;entryX=0.5;entryY=1;entryDx=0;entryDy=0;strokeWidth=4;labelBackgroundColor=none;strokeColor=#736CA8;fontColor=default;exitX=0.5;exitY=0;exitDx=0;exitDy=0;" edge="1" parent="1" source="f88JeJVREhCq8KjihNfG-39" target="f88JeJVREhCq8KjihNfG-42">
          <mxGeometry width="50" height="50" relative="1" as="geometry">
            <mxPoint x="1133.5" y="1012" as="sourcePoint" />
            <mxPoint x="1328.5" y="935" as="targetPoint" />
          </mxGeometry>
        </mxCell>
        <mxCell id="f88JeJVREhCq8KjihNfG-50" value="" style="endArrow=none;html=1;rounded=0;entryX=0.5;entryY=0;entryDx=0;entryDy=0;strokeWidth=4;labelBackgroundColor=none;strokeColor=#736CA8;fontColor=default;exitX=0.458;exitY=0.993;exitDx=0;exitDy=0;exitPerimeter=0;" edge="1" parent="1" source="f88JeJVREhCq8KjihNfG-41" target="f88JeJVREhCq8KjihNfG-39">
          <mxGeometry width="50" height="50" relative="1" as="geometry">
            <mxPoint x="1109.5" y="953" as="sourcePoint" />
            <mxPoint x="1304.5" y="876" as="targetPoint" />
          </mxGeometry>
        </mxCell>
        <mxCell id="f88JeJVREhCq8KjihNfG-51" value="" style="endArrow=none;html=1;rounded=0;entryX=0.5;entryY=0;entryDx=0;entryDy=0;strokeWidth=4;labelBackgroundColor=none;strokeColor=#736CA8;fontColor=default;exitX=0.5;exitY=1;exitDx=0;exitDy=0;" edge="1" parent="1" source="f88JeJVREhCq8KjihNfG-43" target="f88JeJVREhCq8KjihNfG-39">
          <mxGeometry width="50" height="50" relative="1" as="geometry">
            <mxPoint x="1026.5" y="988" as="sourcePoint" />
            <mxPoint x="1221.5" y="911" as="targetPoint" />
          </mxGeometry>
        </mxCell>
        <mxCell id="f88JeJVREhCq8KjihNfG-53" value="" style="endArrow=none;html=1;rounded=0;entryX=0.5;entryY=0;entryDx=0;entryDy=0;strokeWidth=4;labelBackgroundColor=none;strokeColor=#736CA8;fontColor=default;exitX=1;exitY=0.5;exitDx=0;exitDy=0;" edge="1" parent="1" source="f88JeJVREhCq8KjihNfG-44" target="f88JeJVREhCq8KjihNfG-39">
          <mxGeometry width="50" height="50" relative="1" as="geometry">
            <mxPoint x="999.5" y="1093" as="sourcePoint" />
            <mxPoint x="1194.5" y="1016" as="targetPoint" />
          </mxGeometry>
        </mxCell>
        <mxCell id="f88JeJVREhCq8KjihNfG-54" value="" style="endArrow=none;html=1;rounded=0;entryX=0.448;entryY=-0.003;entryDx=0;entryDy=0;strokeWidth=4;labelBackgroundColor=none;strokeColor=#736CA8;fontColor=default;exitX=0.5;exitY=1;exitDx=0;exitDy=0;entryPerimeter=0;" edge="1" parent="1" source="f88JeJVREhCq8KjihNfG-45" target="f88JeJVREhCq8KjihNfG-39">
          <mxGeometry width="50" height="50" relative="1" as="geometry">
            <mxPoint x="953.5" y="1103" as="sourcePoint" />
            <mxPoint x="1148.5" y="1026" as="targetPoint" />
          </mxGeometry>
        </mxCell>
        <mxCell id="f88JeJVREhCq8KjihNfG-56" value="&lt;b&gt;&lt;font style=&quot;font-size: 19px;&quot;&gt;Payment&lt;/font&gt;&lt;/b&gt;" style="rounded=0;whiteSpace=wrap;html=1;fillColor=#5D7F99;strokeColor=#D0CEE2;labelBackgroundColor=none;fontColor=#1A1A1A;" vertex="1" parent="1">
          <mxGeometry x="1051" y="476" width="158" height="62" as="geometry" />
        </mxCell>
        <mxCell id="f88JeJVREhCq8KjihNfG-57" value="payment_id" style="ellipse;whiteSpace=wrap;html=1;fillColor=#5D7F99;strokeColor=#D0CEE2;labelBackgroundColor=none;fontColor=#1A1A1A;fontSize=13;fontStyle=1" vertex="1" parent="1">
          <mxGeometry x="1284" y="390" width="162" height="60" as="geometry" />
        </mxCell>
        <mxCell id="f88JeJVREhCq8KjihNfG-58" value="booking_id" style="ellipse;whiteSpace=wrap;html=1;fillColor=#5D7F99;strokeColor=#D0CEE2;labelBackgroundColor=none;fontColor=#1A1A1A;fontSize=13;fontStyle=1" vertex="1" parent="1">
          <mxGeometry x="1251" y="316" width="162" height="60" as="geometry" />
        </mxCell>
        <mxCell id="f88JeJVREhCq8KjihNfG-59" value="amount" style="ellipse;whiteSpace=wrap;html=1;fillColor=#5D7F99;strokeColor=#D0CEE2;labelBackgroundColor=none;fontColor=#1A1A1A;fontSize=13;fontStyle=1" vertex="1" parent="1">
          <mxGeometry x="822" y="390" width="162" height="60" as="geometry" />
        </mxCell>
        <mxCell id="f88JeJVREhCq8KjihNfG-60" value="payment_date" style="ellipse;whiteSpace=wrap;html=1;fillColor=#5D7F99;strokeColor=#D0CEE2;labelBackgroundColor=none;fontColor=#1A1A1A;fontSize=13;fontStyle=1" vertex="1" parent="1">
          <mxGeometry x="898" y="319" width="162" height="60" as="geometry" />
        </mxCell>
        <mxCell id="f88JeJVREhCq8KjihNfG-61" value="payment_method" style="ellipse;whiteSpace=wrap;html=1;fillColor=#5D7F99;strokeColor=#D0CEE2;labelBackgroundColor=none;fontColor=#1A1A1A;fontSize=13;fontStyle=1" vertex="1" parent="1">
          <mxGeometry x="1084" y="330" width="162" height="60" as="geometry" />
        </mxCell>
        <mxCell id="f88JeJVREhCq8KjihNfG-62" value="" style="endArrow=none;html=1;rounded=0;entryX=0.5;entryY=1;entryDx=0;entryDy=0;strokeWidth=4;labelBackgroundColor=none;strokeColor=#736CA8;fontColor=default;exitX=0.5;exitY=0;exitDx=0;exitDy=0;" edge="1" parent="1" source="f88JeJVREhCq8KjihNfG-56" target="f88JeJVREhCq8KjihNfG-57">
          <mxGeometry width="50" height="50" relative="1" as="geometry">
            <mxPoint x="1336" y="453" as="sourcePoint" />
            <mxPoint x="1533" y="298" as="targetPoint" />
          </mxGeometry>
        </mxCell>
        <mxCell id="f88JeJVREhCq8KjihNfG-63" value="" style="endArrow=none;html=1;rounded=0;entryX=0.5;entryY=1;entryDx=0;entryDy=0;strokeWidth=4;labelBackgroundColor=none;strokeColor=#736CA8;fontColor=default;exitX=0.5;exitY=0;exitDx=0;exitDy=0;" edge="1" parent="1" source="f88JeJVREhCq8KjihNfG-56" target="f88JeJVREhCq8KjihNfG-58">
          <mxGeometry width="50" height="50" relative="1" as="geometry">
            <mxPoint x="1150" y="400" as="sourcePoint" />
            <mxPoint x="1347" y="245" as="targetPoint" />
          </mxGeometry>
        </mxCell>
        <mxCell id="f88JeJVREhCq8KjihNfG-64" value="" style="endArrow=none;html=1;rounded=0;entryX=0.5;entryY=0;entryDx=0;entryDy=0;strokeWidth=4;labelBackgroundColor=none;strokeColor=#736CA8;fontColor=default;exitX=0.5;exitY=1;exitDx=0;exitDy=0;" edge="1" parent="1" source="f88JeJVREhCq8KjihNfG-59" target="f88JeJVREhCq8KjihNfG-56">
          <mxGeometry width="50" height="50" relative="1" as="geometry">
            <mxPoint x="1017" y="398" as="sourcePoint" />
            <mxPoint x="1214" y="243" as="targetPoint" />
          </mxGeometry>
        </mxCell>
        <mxCell id="f88JeJVREhCq8KjihNfG-65" value="" style="endArrow=none;html=1;rounded=0;entryX=0.5;entryY=0;entryDx=0;entryDy=0;strokeWidth=4;labelBackgroundColor=none;strokeColor=#736CA8;fontColor=default;exitX=0.5;exitY=1;exitDx=0;exitDy=0;" edge="1" parent="1" source="f88JeJVREhCq8KjihNfG-60" target="f88JeJVREhCq8KjihNfG-56">
          <mxGeometry width="50" height="50" relative="1" as="geometry">
            <mxPoint x="1051" y="399" as="sourcePoint" />
            <mxPoint x="1248" y="244" as="targetPoint" />
          </mxGeometry>
        </mxCell>
        <mxCell id="f88JeJVREhCq8KjihNfG-66" value="" style="endArrow=none;html=1;rounded=0;strokeWidth=4;labelBackgroundColor=none;strokeColor=#736CA8;fontColor=default;exitX=0.5;exitY=0;exitDx=0;exitDy=0;entryX=0.5;entryY=1;entryDx=0;entryDy=0;" edge="1" parent="1" source="f88JeJVREhCq8KjihNfG-56" target="f88JeJVREhCq8KjihNfG-61">
          <mxGeometry width="50" height="50" relative="1" as="geometry">
            <mxPoint x="1176" y="409" as="sourcePoint" />
            <mxPoint x="1235" y="306" as="targetPoint" />
          </mxGeometry>
        </mxCell>
        <mxCell id="f88JeJVREhCq8KjihNfG-67" value="&lt;b&gt;&lt;font style=&quot;font-size: 19px;&quot;&gt;Message&lt;/font&gt;&lt;/b&gt;" style="rounded=0;whiteSpace=wrap;html=1;fillColor=#5D7F99;strokeColor=#D0CEE2;labelBackgroundColor=none;fontColor=#1A1A1A;" vertex="1" parent="1">
          <mxGeometry x="1686" y="946" width="158" height="62" as="geometry" />
        </mxCell>
        <mxCell id="f88JeJVREhCq8KjihNfG-68" value="&lt;b&gt;&lt;font style=&quot;font-size: 19px;&quot;&gt;Review&lt;/font&gt;&lt;/b&gt;" style="rounded=0;whiteSpace=wrap;html=1;fillColor=#5D7F99;strokeColor=#D0CEE2;labelBackgroundColor=none;fontColor=#1A1A1A;" vertex="1" parent="1">
          <mxGeometry x="1996" y="612" width="158" height="62" as="geometry" />
        </mxCell>
        <mxCell id="f88JeJVREhCq8KjihNfG-69" value="User_ID" style="ellipse;whiteSpace=wrap;html=1;fillColor=#5D7F99;strokeColor=#D0CEE2;labelBackgroundColor=none;fontColor=#1A1A1A;fontSize=13;fontStyle=1" vertex="1" parent="1">
          <mxGeometry x="1821" y="453" width="162" height="60" as="geometry" />
        </mxCell>
        <mxCell id="f88JeJVREhCq8KjihNfG-70" value="Properity_id" style="ellipse;whiteSpace=wrap;html=1;fillColor=#5D7F99;strokeColor=#D0CEE2;labelBackgroundColor=none;fontColor=#1A1A1A;fontSize=13;fontStyle=1" vertex="1" parent="1">
          <mxGeometry x="2003" y="448" width="162" height="60" as="geometry" />
        </mxCell>
        <mxCell id="f88JeJVREhCq8KjihNfG-71" value="review_id" style="ellipse;whiteSpace=wrap;html=1;fillColor=#5D7F99;strokeColor=#D0CEE2;labelBackgroundColor=none;fontColor=#1A1A1A;fontSize=13;fontStyle=1" vertex="1" parent="1">
          <mxGeometry x="1708" y="503" width="162" height="60" as="geometry" />
        </mxCell>
        <mxCell id="f88JeJVREhCq8KjihNfG-72" value="rating" style="ellipse;whiteSpace=wrap;html=1;fillColor=#5D7F99;strokeColor=#D0CEE2;labelBackgroundColor=none;fontColor=#1A1A1A;fontSize=13;fontStyle=1" vertex="1" parent="1">
          <mxGeometry x="2262" y="533" width="162" height="60" as="geometry" />
        </mxCell>
        <mxCell id="f88JeJVREhCq8KjihNfG-73" value="comment" style="ellipse;whiteSpace=wrap;html=1;fillColor=#5D7F99;strokeColor=#D0CEE2;labelBackgroundColor=none;fontColor=#1A1A1A;fontSize=13;fontStyle=1" vertex="1" parent="1">
          <mxGeometry x="2172" y="470" width="162" height="60" as="geometry" />
        </mxCell>
        <mxCell id="f88JeJVREhCq8KjihNfG-74" value="created_at" style="ellipse;whiteSpace=wrap;html=1;fillColor=#5D7F99;strokeColor=#D0CEE2;labelBackgroundColor=none;fontColor=#1A1A1A;fontSize=13;fontStyle=1" vertex="1" parent="1">
          <mxGeometry x="1025" y="263" width="162" height="60" as="geometry" />
        </mxCell>
        <mxCell id="f88JeJVREhCq8KjihNfG-75" value="message_id" style="ellipse;whiteSpace=wrap;html=1;fillColor=#5D7F99;strokeColor=#D0CEE2;labelBackgroundColor=none;fontColor=#1A1A1A;fontSize=13;fontStyle=1" vertex="1" parent="1">
          <mxGeometry x="1533" y="826" width="162" height="60" as="geometry" />
        </mxCell>
        <mxCell id="f88JeJVREhCq8KjihNfG-76" value="sender_id" style="ellipse;whiteSpace=wrap;html=1;fillColor=#5D7F99;strokeColor=#D0CEE2;labelBackgroundColor=none;fontColor=#1A1A1A;fontSize=13;fontStyle=1" vertex="1" parent="1">
          <mxGeometry x="1712" y="811" width="162" height="60" as="geometry" />
        </mxCell>
        <mxCell id="f88JeJVREhCq8KjihNfG-77" value="recipient_id" style="ellipse;whiteSpace=wrap;html=1;fillColor=#5D7F99;strokeColor=#D0CEE2;labelBackgroundColor=none;fontColor=#1A1A1A;fontSize=13;fontStyle=1" vertex="1" parent="1">
          <mxGeometry x="1882" y="819" width="162" height="60" as="geometry" />
        </mxCell>
        <mxCell id="f88JeJVREhCq8KjihNfG-78" value="message_body" style="ellipse;whiteSpace=wrap;html=1;fillColor=#5D7F99;strokeColor=#D0CEE2;labelBackgroundColor=none;fontColor=#1A1A1A;fontSize=13;fontStyle=1" vertex="1" parent="1">
          <mxGeometry x="1596" y="751" width="162" height="60" as="geometry" />
        </mxCell>
        <mxCell id="f88JeJVREhCq8KjihNfG-79" value="sent_at" style="ellipse;whiteSpace=wrap;html=1;fillColor=#5D7F99;strokeColor=#D0CEE2;labelBackgroundColor=none;fontColor=#1A1A1A;fontSize=13;fontStyle=1" vertex="1" parent="1">
          <mxGeometry x="1863" y="751" width="162" height="60" as="geometry" />
        </mxCell>
        <mxCell id="f88JeJVREhCq8KjihNfG-80" value="" style="endArrow=none;html=1;rounded=0;strokeWidth=4;labelBackgroundColor=none;strokeColor=#736CA8;fontColor=default;exitX=0.567;exitY=0.003;exitDx=0;exitDy=0;entryX=0.5;entryY=1;entryDx=0;entryDy=0;exitPerimeter=0;" edge="1" parent="1" source="f88JeJVREhCq8KjihNfG-67" target="f88JeJVREhCq8KjihNfG-77">
          <mxGeometry width="50" height="50" relative="1" as="geometry">
            <mxPoint x="1848" y="856" as="sourcePoint" />
            <mxPoint x="2055" y="799" as="targetPoint" />
          </mxGeometry>
        </mxCell>
        <mxCell id="f88JeJVREhCq8KjihNfG-155" value="" style="endArrow=none;html=1;rounded=0;strokeWidth=4;labelBackgroundColor=none;strokeColor=#736CA8;fontColor=default;entryX=0.5;entryY=1;entryDx=0;entryDy=0;" edge="1" parent="1" source="f88JeJVREhCq8KjihNfG-67" target="f88JeJVREhCq8KjihNfG-76">
          <mxGeometry width="50" height="50" relative="1" as="geometry">
            <mxPoint x="1787" y="844" as="sourcePoint" />
            <mxPoint x="2077" y="702" as="targetPoint" />
          </mxGeometry>
        </mxCell>
        <mxCell id="f88JeJVREhCq8KjihNfG-156" value="" style="endArrow=none;html=1;rounded=0;strokeWidth=4;labelBackgroundColor=none;strokeColor=#736CA8;fontColor=default;entryX=0.5;entryY=1;entryDx=0;entryDy=0;" edge="1" parent="1" target="f88JeJVREhCq8KjihNfG-75">
          <mxGeometry width="50" height="50" relative="1" as="geometry">
            <mxPoint x="1776" y="947" as="sourcePoint" />
            <mxPoint x="1885" y="709" as="targetPoint" />
          </mxGeometry>
        </mxCell>
        <mxCell id="f88JeJVREhCq8KjihNfG-157" value="" style="endArrow=none;html=1;rounded=0;strokeWidth=4;labelBackgroundColor=none;strokeColor=#736CA8;fontColor=default;exitX=0.5;exitY=1;exitDx=0;exitDy=0;entryX=0.547;entryY=0.039;entryDx=0;entryDy=0;entryPerimeter=0;" edge="1" parent="1" source="f88JeJVREhCq8KjihNfG-78" target="f88JeJVREhCq8KjihNfG-67">
          <mxGeometry width="50" height="50" relative="1" as="geometry">
            <mxPoint x="1782" y="795" as="sourcePoint" />
            <mxPoint x="2072" y="653" as="targetPoint" />
          </mxGeometry>
        </mxCell>
        <mxCell id="f88JeJVREhCq8KjihNfG-160" value="" style="endArrow=none;html=1;rounded=0;strokeWidth=4;labelBackgroundColor=none;strokeColor=#736CA8;fontColor=default;exitX=1;exitY=1;exitDx=0;exitDy=0;entryX=0.5;entryY=0;entryDx=0;entryDy=0;" edge="1" parent="1" source="f88JeJVREhCq8KjihNfG-71" target="f88JeJVREhCq8KjihNfG-68">
          <mxGeometry width="50" height="50" relative="1" as="geometry">
            <mxPoint x="1788" y="543" as="sourcePoint" />
            <mxPoint x="2078" y="401" as="targetPoint" />
          </mxGeometry>
        </mxCell>
        <mxCell id="f88JeJVREhCq8KjihNfG-161" value="" style="endArrow=none;html=1;rounded=0;strokeWidth=4;labelBackgroundColor=none;strokeColor=#736CA8;fontColor=default;exitX=0.5;exitY=1;exitDx=0;exitDy=0;entryX=0.5;entryY=0;entryDx=0;entryDy=0;" edge="1" parent="1" source="f88JeJVREhCq8KjihNfG-69" target="f88JeJVREhCq8KjihNfG-68">
          <mxGeometry width="50" height="50" relative="1" as="geometry">
            <mxPoint x="2024" y="525" as="sourcePoint" />
            <mxPoint x="2314" y="383" as="targetPoint" />
          </mxGeometry>
        </mxCell>
        <mxCell id="f88JeJVREhCq8KjihNfG-162" value="" style="endArrow=none;html=1;rounded=0;strokeWidth=4;labelBackgroundColor=none;strokeColor=#736CA8;fontColor=default;exitX=0.5;exitY=1;exitDx=0;exitDy=0;entryX=0.5;entryY=0;entryDx=0;entryDy=0;" edge="1" parent="1" source="f88JeJVREhCq8KjihNfG-70" target="f88JeJVREhCq8KjihNfG-68">
          <mxGeometry width="50" height="50" relative="1" as="geometry">
            <mxPoint x="2062" y="526" as="sourcePoint" />
            <mxPoint x="2352" y="384" as="targetPoint" />
          </mxGeometry>
        </mxCell>
        <mxCell id="f88JeJVREhCq8KjihNfG-163" value="" style="endArrow=none;html=1;rounded=0;strokeWidth=4;labelBackgroundColor=none;strokeColor=#736CA8;fontColor=default;exitX=0.5;exitY=0;exitDx=0;exitDy=0;entryX=0;entryY=1;entryDx=0;entryDy=0;" edge="1" parent="1" source="f88JeJVREhCq8KjihNfG-68" target="f88JeJVREhCq8KjihNfG-73">
          <mxGeometry width="50" height="50" relative="1" as="geometry">
            <mxPoint x="2120" y="562" as="sourcePoint" />
            <mxPoint x="2410" y="420" as="targetPoint" />
          </mxGeometry>
        </mxCell>
        <mxCell id="f88JeJVREhCq8KjihNfG-164" value="" style="endArrow=none;html=1;rounded=0;strokeWidth=4;labelBackgroundColor=none;strokeColor=#736CA8;fontColor=default;exitX=0.5;exitY=0;exitDx=0;exitDy=0;entryX=0;entryY=1;entryDx=0;entryDy=0;" edge="1" parent="1" source="f88JeJVREhCq8KjihNfG-68" target="f88JeJVREhCq8KjihNfG-72">
          <mxGeometry width="50" height="50" relative="1" as="geometry">
            <mxPoint x="2220" y="493" as="sourcePoint" />
            <mxPoint x="2510" y="351" as="targetPoint" />
          </mxGeometry>
        </mxCell>
        <mxCell id="f88JeJVREhCq8KjihNfG-174" value="&lt;font style=&quot;font-size: 17px;&quot;&gt;&lt;b&gt;have&lt;/b&gt;&lt;/font&gt;" style="rhombus;whiteSpace=wrap;html=1;strokeColor=#D0CEE2;fontColor=#1A1A1A;fillColor=#5D7F99;" vertex="1" parent="1">
          <mxGeometry x="1476" y="611" width="80" height="80" as="geometry" />
        </mxCell>
        <mxCell id="f88JeJVREhCq8KjihNfG-176" value="" style="edgeStyle=orthogonalEdgeStyle;rounded=0;orthogonalLoop=1;jettySize=auto;html=1;exitX=1;exitY=0.5;exitDx=0;exitDy=0;entryX=0;entryY=0.5;entryDx=0;entryDy=0;strokeColor=#736CA8;fontColor=#1A1A1A;jumpSize=19;strokeWidth=5;endArrow=oval;endFill=1;" edge="1" parent="1" source="f88JeJVREhCq8KjihNfG-2" target="f88JeJVREhCq8KjihNfG-175">
          <mxGeometry relative="1" as="geometry">
            <mxPoint x="438" y="477" as="sourcePoint" />
            <mxPoint x="1086" y="1075" as="targetPoint" />
          </mxGeometry>
        </mxCell>
        <mxCell id="f88JeJVREhCq8KjihNfG-175" value="&lt;font style=&quot;font-size: 17px;&quot;&gt;&lt;b&gt;have&lt;/b&gt;&lt;/font&gt;" style="rhombus;whiteSpace=wrap;html=1;strokeColor=#D0CEE2;fontColor=#1A1A1A;fillColor=#5D7F99;" vertex="1" parent="1">
          <mxGeometry x="723" y="566" width="80" height="80" as="geometry" />
        </mxCell>
        <mxCell id="f88JeJVREhCq8KjihNfG-177" value="&lt;font style=&quot;font-size: 17px;&quot;&gt;&lt;b&gt;have&lt;/b&gt;&lt;/font&gt;" style="rhombus;whiteSpace=wrap;html=1;strokeColor=#D0CEE2;fontColor=#1A1A1A;fillColor=#5D7F99;" vertex="1" parent="1">
          <mxGeometry x="742" y="1089" width="80" height="80" as="geometry" />
        </mxCell>
      </root>
    </mxGraphModel>
  </diagram>
</mxfile>
